<?xml version="1.0" encoding="UTF-8"?>
<svg width="789px" height="103px" viewBox="0 0 789 103" version="1.1" xmlns="http://www.w3.org/2000/svg" xmlns:xlink="http://www.w3.org/1999/xlink">
    <title>V27Series</title>
    <g id="页面-1" stroke="none" stroke-width="1" fill="none" fill-rule="evenodd">
        <g id="Bigbanner备份" transform="translate(-1121.000000, -862.000000)" fill="#242933" fill-rule="nonzero">
            <path d="M1176.485,964.62 C1181.705,964.62 1185.8,963.495 1188.77,961.245 C1191.29,959.355 1193.54,956.16 1195.52,951.66 L1195.52,951.66 L1231.7,869.85 L1212.665,869.85 L1180.805,944.1 C1179.635,946.62 1178.195,947.88 1176.485,947.88 C1174.595,947.88 1173.065,946.62 1171.895,944.1 L1171.895,944.1 L1140.305,869.85 L1121,869.85 L1157.315,951.66 C1159.205,956.16 1161.5,959.4 1164.2,961.38 C1167.17,963.54 1171.265,964.62 1176.485,964.62 Z M1324.04,963 L1324.04,947.745 L1259.915,947.745 L1259.915,943.02 C1259.915,938.61 1261.085,935.325 1263.425,933.165 C1265.765,931.005 1270.265,929.025 1276.925,927.225 L1276.925,927.225 L1297.04,921.825 C1307.03,919.125 1314.05,916.155 1318.1,912.915 C1323.59,908.505 1326.335,902.205 1326.335,894.015 C1326.335,884.925 1323.095,878.355 1316.615,874.305 C1310.225,870.255 1299.785,868.23 1285.295,868.23 C1271.795,868.23 1258.52,869.58 1245.47,872.28 L1245.47,872.28 L1245.47,887.805 C1256.81,884.925 1269.365,883.485 1283.135,883.485 C1292.765,883.485 1299.38,884.34 1302.98,886.05 C1306.49,887.67 1308.245,890.595 1308.245,894.825 C1308.245,898.515 1306.67,901.395 1303.52,903.465 C1301.18,904.995 1296.815,906.615 1290.425,908.325 L1290.425,908.325 L1267.61,913.86 C1255.37,917.19 1247.9,922.005 1245.2,928.305 C1243.22,932.535 1242.275,937.8 1242.365,944.1 L1242.365,944.1 L1242.365,963 L1324.04,963 Z M1373.99,963 L1423.67,888.75 C1426.37,885.06 1427.72,881.64 1427.72,878.49 C1427.72,875.79 1426.91,873.72 1425.29,872.28 C1423.49,870.66 1420.745,869.85 1417.055,869.85 L1417.055,869.85 L1337.54,869.85 L1337.54,885.105 L1407.065,885.105 L1353.065,963 L1373.99,963 Z M1522.49,964.62 C1537.61,964.62 1548.635,962.46 1555.565,958.14 C1562.495,953.82 1565.96,946.89 1565.96,937.35 C1565.96,929.52 1563.53,923.49 1558.67,919.26 C1554.53,915.66 1548.05,912.825 1539.23,910.755 L1539.23,910.755 L1515.47,906.03 C1509.89,904.59 1506.02,903.15 1503.86,901.71 C1501.16,899.82 1499.81,897.21 1499.81,893.88 C1499.81,890.01 1501.52,887.31 1504.94,885.78 C1508.72,884.07 1515.605,883.215 1525.595,883.215 C1538.105,883.215 1549.895,884.475 1560.965,886.995 L1560.965,886.995 L1560.965,871.74 C1550.885,869.4 1538.825,868.23 1524.785,868.23 C1509.575,868.23 1498.64,870.3 1491.98,874.44 C1485.32,878.58 1481.99,885.24 1481.99,894.42 C1481.99,902.16 1484.465,908.1 1489.415,912.24 C1493.375,915.57 1499.675,918.27 1508.315,920.34 L1508.315,920.34 L1532.615,925.335 C1538.285,926.775 1542.2,928.305 1544.36,929.925 C1546.88,931.815 1548.14,934.425 1548.14,937.755 C1548.14,941.985 1546.34,944.955 1542.74,946.665 C1538.96,948.465 1532.255,949.365 1522.625,949.365 C1508.945,949.365 1495.805,947.655 1483.205,944.235 L1483.205,944.235 L1483.205,959.895 C1494.545,963.045 1507.64,964.62 1522.49,964.62 Z M1620.095,964.62 C1631.345,964.62 1639.94,963.45 1645.88,961.11 L1645.88,961.11 L1645.88,947.34 C1637.33,949.86 1629.23,951.12 1621.58,951.12 C1612.67,951.21 1606.325,949.95 1602.545,947.34 C1598.675,944.73 1596.47,940.365 1595.93,934.245 L1595.93,934.245 L1649.255,934.245 C1649.795,931.005 1650.065,927.315 1650.065,923.175 C1650.065,914.445 1647.5,907.56 1642.37,902.52 C1636.52,896.76 1627.655,893.88 1615.775,893.88 C1604.165,893.88 1595.3,896.76 1589.18,902.52 C1582.88,908.46 1579.73,917.28 1579.73,928.98 C1579.73,941.4 1582.79,950.4 1588.91,955.98 C1595.21,961.74 1605.605,964.62 1620.095,964.62 Z M1633.73,923.04 L1595.93,923.04 C1596.56,917.46 1598.495,913.365 1601.735,910.755 C1604.885,908.235 1609.61,906.975 1615.91,906.975 C1622.39,906.975 1627.07,908.325 1629.95,911.025 C1632.65,913.545 1633.91,917.55 1633.73,923.04 L1633.73,923.04 Z M1684.085,963 L1684.085,912.105 C1692.455,910.935 1702.94,910.215 1715.54,909.945 L1715.54,909.945 L1715.54,893.88 C1703.66,893.97 1692.635,896.535 1682.465,901.575 L1682.465,901.575 L1675.58,896.445 C1673.6,894.735 1671.89,893.88 1670.45,893.88 C1668.38,893.88 1667.345,895.005 1667.345,897.255 L1667.345,897.255 L1667.345,963 L1684.085,963 Z M1735.115,883.08 C1736.825,884.7 1738.49,884.7 1740.11,883.08 L1740.11,883.08 L1747.805,876.06 C1749.605,874.53 1749.605,872.865 1747.805,871.065 L1747.805,871.065 L1740.11,863.91 C1738.49,862.29 1736.825,862.29 1735.115,863.91 L1735.115,863.91 L1727.42,871.065 C1725.8,872.865 1725.845,874.53 1727.555,876.06 L1727.555,876.06 L1735.115,883.08 Z M1745.915,963 L1745.915,895.5 L1729.31,895.5 L1729.31,963 L1745.915,963 Z M1803.425,964.62 C1814.675,964.62 1823.27,963.45 1829.21,961.11 L1829.21,961.11 L1829.21,947.34 C1820.66,949.86 1812.56,951.12 1804.91,951.12 C1796,951.21 1789.655,949.95 1785.875,947.34 C1782.005,944.73 1779.8,940.365 1779.26,934.245 L1779.26,934.245 L1832.585,934.245 C1833.125,931.005 1833.395,927.315 1833.395,923.175 C1833.395,914.445 1830.83,907.56 1825.7,902.52 C1819.85,896.76 1810.985,893.88 1799.105,893.88 C1787.495,893.88 1778.63,896.76 1772.51,902.52 C1766.21,908.46 1763.06,917.28 1763.06,928.98 C1763.06,941.4 1766.12,950.4 1772.24,955.98 C1778.54,961.74 1788.935,964.62 1803.425,964.62 Z M1817.06,923.04 L1779.26,923.04 C1779.89,917.46 1781.825,913.365 1785.065,910.755 C1788.215,908.235 1792.94,906.975 1799.24,906.975 C1805.72,906.975 1810.4,908.325 1813.28,911.025 C1815.98,913.545 1817.24,917.55 1817.06,923.04 L1817.06,923.04 Z M1877.135,964.62 C1888.295,964.62 1896.44,962.91 1901.57,959.49 C1906.7,956.07 1909.265,950.715 1909.265,943.425 C1909.265,937.305 1907.24,932.67 1903.19,929.52 C1899.95,927 1894.775,924.975 1887.665,923.445 L1887.665,923.445 L1874.165,920.88 C1870.025,919.98 1867.235,919.125 1865.795,918.315 C1864.085,917.325 1863.23,915.795 1863.23,913.725 C1863.23,911.385 1864.31,909.72 1866.47,908.73 C1868.9,907.65 1873.175,907.11 1879.295,907.11 C1888.295,907.11 1896.71,908.235 1904.54,910.485 L1904.54,910.485 L1904.54,896.715 C1897.61,894.825 1889.105,893.88 1879.025,893.88 C1867.685,893.88 1859.495,895.5 1854.455,898.74 C1849.505,901.89 1847.03,906.975 1847.03,913.995 C1847.03,920.025 1848.92,924.615 1852.7,927.765 C1855.76,930.285 1860.8,932.265 1867.82,933.705 L1867.82,933.705 L1882.4,936.675 C1886.09,937.395 1888.745,938.25 1890.365,939.24 C1892.165,940.32 1893.065,941.94 1893.065,944.1 C1893.065,946.53 1891.895,948.33 1889.555,949.5 C1886.945,950.76 1882.58,951.39 1876.46,951.39 C1866.65,951.39 1857.11,949.905 1847.84,946.935 L1847.84,946.935 L1847.84,960.705 C1855.31,963.315 1865.075,964.62 1877.135,964.62 Z" id="V27Series"></path>
        </g>
    </g>
</svg>